HIERARCHY
ROOT Hips
{
	OFFSET 0.000000 0.000000 0.000000
	CHANNELS 6 Xposition Yposition Zposition Zrotation Yrotation Xrotation 
	JOINT LHipJoint
	{
		OFFSET 0.000000 0.000000 0.000000
		CHANNELS 3 Zrotation Yrotation Xrotation
		JOINT LeftUpLeg
		{
			OFFSET 1.363060 -1.794630 0.839290
			CHANNELS 3 Zrotation Yrotation Xrotation
			JOINT LeftLeg
			{
				OFFSET 2.448110 -6.726130 0.000000
				CHANNELS 3 Zrotation Yrotation Xrotation
				JOINT LeftFoot
				{
					OFFSET 2.562200 -7.039590 0.000000
					CHANNELS 3 Zrotation Yrotation Xrotation
					JOINT LeftToeBase
					{
						OFFSET 0.157640 -0.433110 2.322550
						CHANNELS 3 Zrotation Yrotation Xrotation
						End Site
						{
							OFFSET 0.000000 0.000000 0.000000
						}
					}
				}
			}
		}
	}
	JOINT RHipJoint
	{
		OFFSET 0.000000 0.000000 0.000000
		CHANNELS 3 Zrotation Yrotation Xrotation
		JOINT RightUpLeg
		{
			OFFSET -1.305520 -1.794630 0.839290
			CHANNELS 3 Zrotation Yrotation Xrotation
			JOINT RightLeg
			{
				OFFSET -2.542530 -6.985550 0.000000
				CHANNELS 3 Zrotation Yrotation Xrotation
				JOINT RightFoot
				{
					OFFSET -2.568260 -7.056230 0.000000
					CHANNELS 3 Zrotation Yrotation Xrotation
					JOINT RightToeBase
					{
						OFFSET -0.164730 -0.452590 2.363150
						CHANNELS 3 Zrotation Yrotation Xrotation
						End Site
						{
							OFFSET 0.000000 0.000000 0.000000
						}
					}
				}
			}
		}
	}
	JOINT LowerBack
	{
		OFFSET 0.000000 0.000000 0.000000
		CHANNELS 3 Zrotation Yrotation Xrotation
		JOINT Spine
		{
			OFFSET 0.028270 2.035590 -0.193380
			CHANNELS 3 Zrotation Yrotation Xrotation
			JOINT Spine1
			{
				OFFSET 0.056720 2.048850 -0.042750
				CHANNELS 3 Zrotation Yrotation Xrotation
				JOINT Neck
				{
					OFFSET 0.000000 0.000000 0.000000
					CHANNELS 3 Zrotation Yrotation Xrotation
					JOINT Neck1
					{
						OFFSET -0.054170 1.746240 0.172020
						CHANNELS 3 Zrotation Yrotation Xrotation
						JOINT Head
						{
							OFFSET 0.104070 1.761360 -0.123970
							CHANNELS 3 Zrotation Yrotation Xrotation
							End Site
							{
								OFFSET 0.000000 0.000000 0.000000
							}
						}
					}
				}
				JOINT LeftShoulder
				{
					OFFSET 0.000000 0.000000 0.000000
					CHANNELS 3 Zrotation Yrotation Xrotation
					JOINT LeftArm
					{
						OFFSET 3.362410 1.200890 -0.311210
						CHANNELS 3 Zrotation Yrotation Xrotation
						JOINT LeftForeArm
						{
							OFFSET 4.983000 -0.000000 -0.000000
							CHANNELS 3 Zrotation Yrotation Xrotation
							JOINT LeftHand
							{
								OFFSET 3.483560 -0.000000 -0.000000
								CHANNELS 3 Zrotation Yrotation Xrotation
								JOINT LeftFingerBase
								{
									OFFSET 0.000000 0.000000 0.000000
									CHANNELS 3 Zrotation Yrotation Xrotation
									JOINT LeftHandIndex1
									{
										OFFSET 0.715260 -0.000000 -0.000000
										CHANNELS 3 Zrotation Yrotation Xrotation
										End Site
										{
											OFFSET 0.000000 0.000000 0.000000
										}
									}
								}
								JOINT LThumb
								{
									OFFSET 0.000000 0.000000 0.000000
									CHANNELS 3 Zrotation Yrotation Xrotation
									End Site
									{
										OFFSET 0.000000 0.000000 0.000000
									}
								}
							}
						}
					}
				}
				JOINT RightShoulder
				{
					OFFSET 0.000000 0.000000 0.000000
					CHANNELS 3 Zrotation Yrotation Xrotation
					JOINT RightArm
					{
						OFFSET -3.136600 1.374050 -0.404650
						CHANNELS 3 Zrotation Yrotation Xrotation
						JOINT RightForeArm
						{
							OFFSET -5.241900 -0.000000 -0.000000
							CHANNELS 3 Zrotation Yrotation Xrotation
							JOINT RightHand
							{
								OFFSET -3.444170 -0.000000 -0.000000
								CHANNELS 3 Zrotation Yrotation Xrotation
								JOINT RightFingerBase
								{
									OFFSET 0.000000 0.000000 0.000000
									CHANNELS 3 Zrotation Yrotation Xrotation
									JOINT RightHandIndex1
									{
										OFFSET -0.622530 -0.000000 -0.000000
										CHANNELS 3 Zrotation Yrotation Xrotation
										End Site
										{
											OFFSET 0.000000 0.000000 0.000000
										}
									}
								}
								JOINT RThumb
								{
									OFFSET 0.000000 0.000000 0.000000
									CHANNELS 3 Zrotation Yrotation Xrotation
									End Site
									{
										OFFSET 0.000000 0.000000 0.000000
									}
								}
							}
						}
					}
				}
			}
		}
	}
}
MOTION
Frames: 9
Frame Time: 0.008333
3.018595 15.771599 0.960400 -162.601838 -89.736632 -154.370224 -9.167043 0.775891 -0.128320 -21.622454 5.333885 -78.279887 -3.589553 5.338158 51.236328 2.085117 4.967669 -17.934782 -0.945900 -0.000000 -41.286600 8.309094 1.291677 -0.518288 16.789683 -10.784329 -77.981210 3.995841 -6.204536 50.747245 0.175705 4.563963 -11.899777 -0.004600 0.000001 -66.693900 3.331387 -3.551002 2.753832 0.499926 -3.702749 -3.005584 -4.515915 -3.669517 -2.835000 9.260046 -13.154540 -5.640102 -2.501591 -0.183253 0.095898 0.000000 0.000000 0.000000 14.843605 -3.414412 -0.410328 -83.901005 -5.961291 5.704965 178.960258 -54.493998 179.836690 13.210993 -2.799434 -0.421118 -0.247719 0.804738 0.000000 0.000000 0.000000 0.000000 0.000000 0.000000 0.000000 0.722222 -10.136890 0.927632 76.492757 16.831890 28.742368 179.697345 64.054146 179.834959 -16.893930 8.140608 -1.366244 0.455797 -0.816909 -0.000000 0.000000 0.000000 0.000000 0.000000 0.000000 0.000000 
3.014183 15.779605 0.970056 -165.465755 -89.479210 -151.659064 -9.282914 0.810675 -0.086525 -21.623210 5.561479 -78.178202 -3.608805 5.355911 51.153639 2.081669 4.946147 -17.968879 -0.947100 -0.000001 -41.305100 8.207417 1.258253 -0.496113 16.863100 -10.744674 -77.718387 4.012457 -6.132330 50.532291 0.204469 4.681276 -11.793992 -0.003800 0.000000 -66.700600 3.570139 -3.622271 2.639209 0.552770 -3.791422 -3.039985 -4.535604 -3.764475 -2.872323 9.378708 -13.244010 -5.581665 -2.499544 -0.184352 0.120566 0.000000 0.000000 0.000000 15.096945 -3.768343 -0.482151 -83.911458 -6.263997 5.019697 178.924201 -54.730472 179.835938 13.251259 -2.707809 -0.411225 -0.242565 0.802681 0.000000 0.000000 0.000000 0.000000 0.000000 0.000000 0.000000 0.823154 -10.294678 0.953472 76.423570 16.940654 28.852097 179.687543 64.109286 179.835258 -16.889803 8.108639 -1.360852 0.456599 -0.815452 -0.000000 0.000000 0.000000 0.000000 0.000000 0.000000 0.000000 
3.008870 15.788809 0.980370 -168.768077 -89.212170 -148.525007 -9.421632 0.835392 -0.042200 -21.633465 5.799849 -78.047247 -3.629566 5.370294 51.051095 2.078064 4.926376 -18.000748 -0.948200 0.000000 -41.327100 8.085007 1.209130 -0.470382 16.928999 -10.714103 -77.432310 4.031178 -6.055373 50.291937 0.234918 4.804365 -11.676150 -0.002600 -0.000000 -66.717001 3.798289 -3.697931 2.514581 0.602094 -3.884292 -3.075021 -4.563002 -3.863967 -2.905633 9.496270 -13.332575 -5.517745 -2.495487 -0.185409 0.147169 0.000000 0.000000 0.000000 15.361729 -4.111493 -0.561290 -83.835937 -6.678410 4.325921 178.898647 -55.020983 179.835005 13.316775 -2.561034 -0.395236 -0.239040 0.799263 0.000000 0.000000 0.000000 0.000000 0.000000 0.000000 0.000000 0.914831 -10.457536 0.976636 76.378496 17.038162 28.954063 179.682598 64.168775 179.835513 -16.883044 8.082268 -1.356063 0.456720 -0.814085 -0.000000 0.000000 0.000000 0.000000 0.000000 0.000000 0.000000 
3.002786 15.799371 0.990927 -172.416306 -88.940706 -145.064605 -9.578611 0.847102 0.000916 -21.662082 6.049908 -77.878021 -3.652041 5.378625 50.925784 2.073690 4.906714 -18.028029 -0.949200 -0.000000 -41.350100 7.946485 1.142217 -0.438947 16.977047 -10.695937 -77.122919 4.051733 -5.975721 50.025893 0.266576 4.931053 -11.547316 -0.000900 -0.000000 -66.744600 4.011210 -3.780631 2.381666 0.646541 -3.983649 -3.109135 -4.600493 -3.970142 -2.930950 9.616070 -13.421904 -5.451063 -2.489600 -0.186394 0.174828 0.000000 0.000000 0.000000 15.642250 -4.430097 -0.648460 -83.655310 -7.230712 3.636500 178.887652 -55.381695 179.833983 13.398076 -2.357579 -0.372752 -0.237013 0.794608 0.000000 0.000000 0.000000 0.000000 0.000000 0.000000 0.000000 1.004777 -10.629130 0.996269 76.357213 17.126560 29.052324 179.682525 64.232569 179.835692 -16.878289 8.058990 -1.351874 0.456327 -0.812719 -0.000000 0.000000 0.000000 0.000000 0.000000 0.000000 0.000000 
2.996019 15.811389 1.001722 -176.517804 -88.671251 -141.172836 -9.754931 0.839971 0.041850 -21.710621 6.308327 -77.663188 -3.675251 5.378111 50.776595 2.068364 4.887424 -18.049002 -0.949899 0.000000 -41.375600 7.791043 1.051944 -0.400654 17.003120 -10.695653 -76.790367 4.074678 -5.895246 49.732679 0.299126 5.059575 -11.406562 0.001500 -0.000000 -66.785200 4.210968 -3.872207 2.240138 0.685978 -4.091441 -3.141509 -4.650804 -4.084882 -2.945160 9.734693 -13.512163 -5.382216 -2.481290 -0.187255 0.203310 0.000000 0.000000 0.000000 15.932474 -4.712561 -0.743639 -83.340577 -7.955578 2.967034 178.896547 -55.832413 179.832902 13.491380 -2.092991 -0.342770 -0.236678 0.788768 0.000000 0.000000 0.000000 0.000000 0.000000 0.000000 0.000000 1.088638 -10.811074 1.010978 76.365566 17.201030 29.143992 179.688810 64.297820 179.835794 -16.872975 8.039581 -1.348191 0.455182 -0.811370 -0.000000 0.000000 0.000000 0.000000 0.000000 0.000000 0.000000 
2.988624 15.824912 1.012477 178.921809 -88.412110 -136.845154 -9.944990 0.809809 0.078197 -21.783544 6.571313 -77.394629 -3.698342 5.365090 50.602438 2.061733 4.868080 -18.060960 -0.950300 0.000000 -41.402100 7.624549 0.934750 -0.353293 16.999229 -10.718713 -76.435744 4.100387 -5.816839 49.412025 0.331928 5.187265 -11.255634 0.004600 -0.000000 -66.839300 4.397953 -3.975207 2.090346 0.719808 -4.210301 -3.171027 -4.716515 -4.210641 -2.944558 9.854303 -13.605587 -5.313258 -2.470481 -0.187958 0.231968 0.000000 0.000000 0.000000 16.235273 -4.948744 -0.846999 -82.871384 -8.883457 2.324301 178.928945 -56.389508 179.831912 13.579222 -1.771810 -0.305292 -0.237596 0.782094 0.000000 0.000000 0.000000 0.000000 0.000000 0.000000 0.000000 1.171665 -11.007091 1.020098 76.402310 17.260832 29.230083 179.701554 64.361707 179.835797 -16.869899 8.021417 -1.344810 0.453390 -0.809963 -0.000000 0.000000 0.000000 0.000000 0.000000 0.000000 0.000000 
2.981075 15.840105 1.023487 173.603107 -88.177874 -131.789217 -10.150259 0.744769 0.109814 -21.875077 6.829429 -77.063417 -3.718154 5.334779 50.405247 2.053950 4.851178 -18.061629 -0.950700 0.000000 -41.433100 7.445467 0.779902 -0.296628 16.965985 -10.776049 -76.057937 4.130456 -5.743846 49.060925 0.364380 5.311220 -11.093577 0.008500 -0.000000 -66.909300 4.583284 -4.093233 1.932120 0.749436 -4.344590 -3.197335 -4.800709 -4.351684 -2.927494 9.966628 -13.700595 -5.242965 -2.455653 -0.188417 0.261170 0.000000 0.000000 0.000000 16.535543 -5.132650 -0.956547 -82.208905 -10.056123 1.717557 178.989117 -57.076809 179.830946 13.664210 -1.387469 -0.259517 -0.240170 0.774555 0.000000 0.000000 0.000000 0.000000 0.000000 0.000000 0.000000 1.240162 -11.216437 1.021847 76.477841 17.294488 29.301617 179.723543 64.422050 179.835737 -16.860567 8.008321 -1.341635 0.450341 -0.808561 -0.000000 0.000000 0.000000 0.000000 0.000000 0.000000 0.000000 
2.973338 15.856855 1.034164 167.564461 -87.980044 -126.040890 -10.353310 0.643280 0.133235 -21.989620 7.077477 -76.662513 -3.733639 5.282236 50.185025 2.044863 4.836719 -18.047910 -0.951000 0.000000 -41.463599 7.271416 0.586637 -0.226869 16.894826 -10.871829 -75.660878 4.165215 -5.680806 48.680808 0.395450 5.427404 -10.924678 0.013200 -0.000000 -66.992500 4.771683 -4.229548 1.765623 0.774656 -4.498170 -3.219463 -4.906095 -4.511412 -2.890237 10.081506 -13.802376 -5.175181 -2.437116 -0.188607 0.289826 0.000000 0.000000 0.000000 16.842661 -5.261542 -1.070736 -81.342511 -11.491119 1.131808 179.076354 -57.907303 179.830301 13.713675 -0.955282 -0.206643 -0.243152 0.766728 -0.000000 0.000000 0.000000 0.000000 0.000000 0.000000 0.000000 1.311239 -11.444812 1.016466 76.581631 17.306848 29.363174 179.752876 64.475048 179.835561 -16.854716 7.993770 -1.338466 0.446605 -0.806998 -0.000000 0.000000 0.000000 0.000000 0.000000 0.000000 0.000000 
2.965850 15.875260 1.044596 160.449888 -87.840054 -119.248396 -10.541709 0.495192 0.147212 -22.118396 7.304580 -76.186036 -3.741057 5.201412 49.947034 2.034521 4.826025 -18.017046 -0.951500 -0.000000 -41.493400 7.114521 0.346240 -0.142105 16.788830 -11.015433 -75.244784 4.206636 -5.632803 48.268271 0.423992 5.530881 -10.751001 0.018900 0.000000 -67.087700 4.984662 -4.389145 1.590410 0.798694 -4.677639 -3.237415 -5.035032 -4.695998 -2.831341 10.197529 -13.911652 -5.110744 -2.413705 -0.188442 0.317787 0.000000 0.000000 0.000000 17.145822 -5.337432 -1.184955 -80.244549 -13.213526 0.551711 179.189071 -58.896925 179.830029 13.720748 -0.476665 -0.147270 -0.246306 0.758699 -0.000000 0.000000 0.000000 0.000000 0.000000 0.000000 0.000000 1.381202 -11.693055 1.002894 76.713870 17.293642 29.410720 179.790217 64.517126 179.835288 -16.849707 7.978280 -1.335203 0.442021 -0.805254 -0.000000 0.000000 0.000000 0.000000 0.000000 0.000000 0.000000 
